<?xml version="1.0" standalone="no"?>
<!DOCTYPE svg PUBLIC "-//W3C//DTD SVG 20010904//EN"
 "http://www.w3.org/TR/2001/REC-SVG-20010904/DTD/svg10.dtd">
<svg version="1.0" xmlns="http://www.w3.org/2000/svg"
 width="420.000000pt" height="104.000000pt" viewBox="0 0 420.000000 104.000000"
 preserveAspectRatio="xMidYMid meet">

<g transform="translate(0.000000,104.000000) scale(0.100000,-0.100000)"
fill="#000000" stroke="none">
<path d="M120 983 c-46 -17 -54 -81 -14 -112 15 -12 35 -21 46 -21 25 0 68 44
68 68 0 42 -59 80 -100 65z"/>
<path d="M503 980 c-49 -20 -34 -112 21 -126 76 -19 114 98 41 126 -30 12 -33
12 -62 0z"/>
<path d="M886 969 c-35 -28 -35 -70 0 -98 15 -12 35 -21 46 -21 25 0 68 44 68
70 0 26 -43 70 -68 70 -11 0 -31 -9 -46 -21z"/>
<path d="M1275 965 c-14 -13 -25 -33 -25 -45 0 -26 43 -70 68 -70 34 0 65 34
65 70 0 22 -7 39 -22 52 -31 25 -57 23 -86 -7z"/>
<path d="M1915 921 c-106 -28 -169 -107 -168 -212 1 -105 54 -169 196 -240
114 -57 137 -80 137 -140 0 -40 -4 -51 -31 -73 -27 -23 -40 -26 -102 -26 -50
0 -85 7 -116 20 -24 11 -45 19 -46 18 -2 -2 -14 -26 -29 -55 -25 -51 -25 -53
-7 -63 69 -37 229 -50 319 -26 112 30 162 98 162 219 0 65 -3 79 -30 119 -35
52 -48 62 -168 124 -115 60 -132 77 -132 130 0 35 5 47 31 68 26 22 40 26 94
26 34 0 82 -7 105 -15 24 -8 44 -14 45 -13 8 10 45 89 45 97 0 32 -225 63
-305 42z"/>
<path d="M2580 865 l0 -55 105 0 105 0 0 -345 0 -345 70 0 70 0 2 343 3 342
103 3 102 3 0 54 0 55 -280 0 -280 0 0 -55z"/>
<path d="M3512 603 c3 -300 4 -321 24 -364 42 -91 148 -136 294 -125 99 7 143
21 186 58 69 61 69 57 72 421 l3 327 -70 0 -70 0 -3 -316 -3 -316 -33 -29
c-30 -27 -39 -29 -108 -29 -54 0 -82 5 -101 17 -49 33 -53 58 -53 378 l0 295
-71 0 -70 0 3 -317z"/>
<path d="M112 588 c-43 -21 -42 -96 3 -116 37 -17 49 -15 79 13 33 31 33 59 0
90 -29 27 -47 30 -82 13z"/>
<path d="M503 588 c-45 -22 -40 -99 8 -119 57 -23 111 29 89 85 -15 41 -54 55
-97 34z"/>
<path d="M886 579 c-15 -12 -26 -30 -26 -45 0 -30 41 -74 70 -74 27 0 70 43
70 70 0 26 -43 70 -68 70 -11 0 -31 -9 -46 -21z"/>
<path d="M1275 575 c-14 -13 -25 -33 -25 -45 0 -27 43 -70 70 -70 27 0 70 43
70 70 0 12 -11 32 -25 45 -13 14 -33 25 -45 25 -11 0 -32 -11 -45 -25z"/>
<path d="M106 189 c-51 -40 -27 -113 39 -113 68 0 97 63 50 109 -30 30 -54 31
-89 4z"/>
<path d="M493 184 c-20 -20 -24 -31 -19 -57 4 -17 11 -36 16 -41 16 -16 79
-12 97 7 24 24 21 76 -6 99 -32 25 -57 23 -88 -8z"/>
<path d="M886 189 c-35 -28 -35 -70 0 -98 15 -12 35 -21 46 -21 25 0 68 44 68
70 0 26 -43 70 -68 70 -11 0 -31 -9 -46 -21z"/>
<path d="M1275 185 c-14 -13 -25 -33 -25 -45 0 -26 43 -70 68 -70 28 0 60 30
68 62 4 21 0 33 -20 52 -32 33 -60 33 -91 1z"/>
</g>
</svg>
